<?xml version="1.0" encoding="UTF-8"?>
<svg id="a" xmlns="http://www.w3.org/2000/svg" viewBox="0 0 999.25 388.21">
    <g id="b">
        <path id="c"
              d="m324.07,202.91v-.49c-.05-1.35-.11-2.67-.19-3.97v-.05c-.05-.92-.11-1.84-.19-2.76-.05-.65-.11-1.27-.16-1.89-.19-2.24-.43-4.46-.76-6.65-.13-1-.3-2-.46-2.97-.16-1.03-.32-2.05-.51-3.08-.22-1.05-.41-2.11-.65-3.16-.22-1-.43-2-.68-2.97-.08-.35-.16-.68-.24-1.03l-.54-2.11c-.78-2.92-1.67-5.78-2.65-8.62-7.4,3.49-14.91,9.97-24.88,18.97l-.46.41c-5.92,5.32-12.48,11.24-19.8,16.7.19,2.54.3,5.16.3,7.81,0,23.07-7.46,42.31-22.37,57.68-14.89,15.4-33.56,23.07-56.01,23.07s-40.69-7.67-55.76-23.07c-15.05-15.37-22.59-34.61-22.59-57.68,0-5.73.46-11.21,1.38-16.45-1.3-.81-2.59-1.65-3.86-2.49-14.13-9.19-28.69-18.64-42.71-23.86-.86,2.46-1.62,4.97-2.3,7.54l-.41,1.59c-.89,3.51-1.62,7.08-2.22,10.75-.16.89-.3,1.78-.41,2.67-.38,2.67-.7,5.4-.92,8.16-.08.95-.14,1.92-.22,2.86,0,.35-.03.7-.05,1.05-.05,1.08-.11,2.13-.13,3.22,0,.3-.03.57-.03.84-.03,1.38-.05,2.73-.05,4.11,0,1.11,0,2.22.03,3.32v.19c.68,29.02,9.56,54.11,26.58,75.33l-73.87,73.87,28.46,28.46,75.07-75.07c21.22,14.18,45.88,21.29,74.01,21.29,36.85,0,67.79-12.16,92.8-36.53,24.21-23.59,36.72-52.74,37.47-87.48l.03-3.38c0-1.38-.03-2.78-.05-4.13Z"
              style="fill:#7ec246;"/>
        <path id="d"
              d="m386.75,139.85c-3.62-10.62-11.97-17.26-21.15-21.42l.03-.05c-21.83-11.02-44.74-19.88-68.27-26.56C276.95,26.95,257.12-.61,231.4.01c-12.64.3-21.13,7.89-26.72,12.91-4.92,4.4-6.67,5.7-8.89,5.73-2.24.05-4.38-1.35-9.67-5.73-7-5.81-17.56-14.59-33.39-11.94-22.24,3.73-31.91,25.72-42.15,49.04-5.57,12.64-9.86,25.86-12.83,39.34-24.8,6.38-48.93,15.21-71.95,26.4-11.83,4.78-20.51,13.35-24.07,24.45-4.81,14.97.51,31.8,14.59,46.2,10.27,10.54,22.8,18.78,36.45,24.21-.03-1.19-.03-2.38-.03-3.57,0-12.73,1.46-24.86,4.35-36.31-5-2.97-9.65-6.57-13.72-10.75-3.57-3.65-5.08-6.67-5.46-8.08.89-.43,1.81-.89,2.73-1.32,1.68-.59,3.92-1.11,6.65-1.24,5.51-.27,11.02.32,16.53,1.65,18.53,4.32,37.04,16.35,55.06,28.07,3.49,2.27,6.89,4.4,10.19,6.4,33.47,20.4,58.14,27.61,85.48,25.42,18.8-1.49,33.47-8.21,45.93-16.75,9.08-6.16,16.97-13.29,24.45-20.02,14.45-13.05,24.99-21.96,38.45-24.26,3.13-.54,6.4-.73,9.92-.51,7.05.41,12.97,1.86,16.29,3.24-1.05,1.78-2.92,4.43-6.27,8.32-3.73,4.35-8.05,7.75-12.59,10.37,2.81,11.29,4.21,23.23,4.21,35.77,0,1.35-.03,2.67-.03,4,12.83-4.81,26.15-12.7,37.15-25.56,5.92-6.94,21.67-25.34,14.7-45.63Zm-241.53-74.62c4.08-9.29,9.51-21.64,13.29-25.99,1.11.84,2.46,1.95,3.46,2.78,7.02,5.84,17.7,14.7,34.26,14.45,16.78-.22,27.37-9.7,33.69-15.37.7-.65,1.54-1.38,2.3-2.03,3.35,3.35,10.89,13.32,21.32,41.31.22.59.46,1.22.68,1.84-20.24-3.27-40.71-5-61.22-5h-.46c-17.83.03-35.69,1.35-53.36,3.86.35-1.08.73-2.19,1.11-3.27,1.49-4.24,3.13-8.46,4.94-12.59Zm114.36,80.81c-5.13,4.65-10.05,9.08-15.08,12.97-9.78,7.62-19.94,13.16-32.96,14.18-15.72,1.24-32.69-1.81-62.38-19.78-3.08-1.84-6.3-3.86-9.65-6.05-10.89-7.08-22.34-14.54-34.53-20.8,25.5-6.75,54.93-11.48,87.59-11.51,33.66-.05,64,4.89,90.13,11.94-8.48,5.81-15.99,12.59-23.13,19.05Z"
              />
    </g>
    <g>
        <g id="e">
            <path d="m436.38,158.91v-11.02c4.3.08,7.17-.61,8.61-2.05,1.44-1.45,2.17-4.32,2.17-8.61v-62.58h12.31v62.58c0,15.24-7.7,22.46-23.09,21.68Zm11.54-96.1c-1.52-1.48-2.29-3.28-2.29-5.39s.76-3.91,2.29-5.39c1.52-1.48,3.34-2.23,5.45-2.23s3.91.74,5.39,2.23c1.48,1.48,2.23,3.28,2.23,5.39s-.74,3.91-2.23,5.39c-1.48,1.49-3.28,2.23-5.39,2.23s-3.93-.74-5.45-2.23Z"
                  style="fill:#7ec246;"/>
            <path d="m480.09,126.8c-6.09-5.94-9.14-13.32-9.14-22.15s3.05-16.23,9.14-22.21c6.09-5.98,13.63-8.97,22.62-8.97s16.52,2.99,22.62,8.97c6.09,5.98,9.14,13.38,9.14,22.21s-3.05,16.21-9.14,22.15c-6.09,5.94-13.64,8.91-22.62,8.91s-16.52-2.97-22.62-8.91Zm9.02-36.27c-3.67,3.79-5.51,8.5-5.51,14.12s1.83,10.31,5.51,14.06c3.67,3.75,8.2,5.63,13.6,5.63s10.02-1.87,13.65-5.63c3.63-3.75,5.45-8.44,5.45-14.06s-1.82-10.43-5.45-14.18c-3.63-3.75-8.19-5.63-13.65-5.63s-9.92,1.9-13.6,5.68Z"
                  style="fill:#7ec246;"/>
            <path d="m579.59,73.47c8.36,0,15.37,2.99,21.04,8.97,5.66,5.98,8.5,13.38,8.5,22.21s-2.83,16.21-8.5,22.15c-5.67,5.94-12.68,8.91-21.04,8.91-8.91,0-16.02-3.36-21.33-10.08v8.91h-12.31V47.81h12.31v35.75c5.31-6.72,12.42-10.08,21.33-10.08Zm-2.23,50.86c5.39,0,9.9-1.87,13.54-5.63,3.63-3.75,5.45-8.44,5.45-14.06s-1.82-10.43-5.45-14.18c-3.63-3.75-8.15-5.63-13.54-5.63s-10.02,1.88-13.65,5.63c-3.63,3.75-5.45,8.48-5.45,14.18s1.82,10.31,5.45,14.06c3.63,3.75,8.18,5.63,13.65,5.63Z"
                  style="fill:#7ec246;"/>
        </g>
        <g id="f">
            <path d="m491.16,284.14v-38.5h13.25v93.41h-13.25v-9.59c-5.72,7.24-13.38,10.86-22.97,10.86-9.01,0-16.56-3.2-22.66-9.59-6.1-6.4-9.15-14.35-9.15-23.86s3.05-17.48,9.15-23.92c6.1-6.44,13.65-9.66,22.66-9.66,9.59,0,17.25,3.62,22.97,10.86Zm-20.58,43.93c5.89,0,10.79-2.02,14.71-6.06,3.91-4.04,5.87-9.09,5.87-15.15s-1.96-11.24-5.87-15.27c-3.91-4.04-8.82-6.06-14.71-6.06s-10.69,2.04-14.64,6.12c-3.96,4.08-5.93,9.15-5.93,15.21s1.98,11.11,5.93,15.15c3.95,4.04,8.84,6.06,14.64,6.06Z"
                  />
            <path d="m550.36,273.29c10.35,0,18.77,3.7,25.25,11.11,6.48,7.41,9.13,16.37,7.95,26.89h-53.4c.93,5.22,3.32,9.45,7.2,12.69,3.87,3.24,8.54,4.86,14.01,4.86,4.21,0,7.97-1.03,11.3-3.09,3.32-2.06,5.91-4.86,7.76-8.39l11.11,4.92c-2.86,5.47-6.94,9.85-12.24,13.13-5.3,3.28-11.4,4.92-18.3,4.92-9.68,0-17.8-3.2-24.36-9.59-6.56-6.4-9.85-14.35-9.85-23.86s3.22-17.48,9.66-23.92c6.44-6.44,14.41-9.66,23.92-9.66Zm0,11.49c-4.88,0-9.11,1.5-12.69,4.48-3.58,2.99-5.95,6.88-7.13,11.68h39.64c-1.09-4.8-3.43-8.69-7.01-11.68-3.58-2.99-7.85-4.48-12.81-4.48Z"
                  />
            <path d="m601.86,286.29h-13.76v-11.74h13.76v-20.95l13.25-4.17v25.12h18.18v11.74h-18.18v29.79c0,3.96.88,6.82,2.65,8.58,1.77,1.77,4.59,2.65,8.46,2.65h7.07v11.74h-7.07c-8.33,0-14.48-1.94-18.43-5.81-3.96-3.87-5.93-9.8-5.93-17.8v-29.16Z"
                  />
            <path d="m673.94,273.29c10.35,0,18.76,3.7,25.25,11.11,6.48,7.41,9.13,16.37,7.95,26.89h-53.4c.93,5.22,3.32,9.45,7.2,12.69,3.87,3.24,8.54,4.86,14.01,4.86,4.21,0,7.97-1.03,11.3-3.09,3.32-2.06,5.91-4.86,7.76-8.39l11.11,4.92c-2.86,5.47-6.94,9.85-12.24,13.13-5.3,3.28-11.4,4.92-18.3,4.92-9.68,0-17.8-3.2-24.36-9.59-6.56-6.4-9.85-14.35-9.85-23.86s3.22-17.48,9.66-23.92c6.44-6.44,14.41-9.66,23.92-9.66Zm0,11.49c-4.88,0-9.11,1.5-12.69,4.48-3.58,2.99-5.95,6.88-7.13,11.68h39.64c-1.09-4.8-3.43-8.69-7.01-11.68-3.58-2.99-7.85-4.48-12.81-4.48Z"
                  />
            <path d="m726.58,330.72c-6.56-6.4-9.85-14.35-9.85-23.86s3.28-17.48,9.85-23.92c6.56-6.44,14.68-9.66,24.36-9.66,6.98,0,13.23,1.81,18.74,5.43,5.51,3.62,9.57,8.58,12.18,14.9l-12.24,4.17c-1.68-3.79-4.17-6.77-7.45-8.96-3.28-2.19-7.03-3.28-11.24-3.28-5.81,0-10.69,2.04-14.64,6.12-3.96,4.08-5.93,9.15-5.93,15.21s1.98,11.11,5.93,15.15c3.95,4.04,8.84,6.06,14.64,6.06,4.21,0,7.97-1.07,11.3-3.22,3.32-2.15,5.79-5.15,7.38-9.03l12.24,4.17c-2.61,6.31-6.67,11.28-12.18,14.9-5.51,3.62-11.76,5.43-18.74,5.43-9.68,0-17.8-3.2-24.36-9.59Z"
                  />
            <path d="m799.16,286.29h-13.76v-11.74h13.76v-20.95l13.25-4.17v25.12h18.18v11.74h-18.18v29.79c0,3.96.88,6.82,2.65,8.58,1.77,1.77,4.59,2.65,8.46,2.65h7.07v11.74h-7.07c-8.33,0-14.47-1.94-18.43-5.81-3.96-3.87-5.93-9.8-5.93-17.8v-29.16Z"
                  />
            <path d="m843.78,261.8c-1.64-1.6-2.46-3.53-2.46-5.81s.82-4.21,2.46-5.81c1.64-1.6,3.6-2.4,5.87-2.4s4.21.8,5.81,2.4c1.6,1.6,2.4,3.53,2.4,5.81s-.8,4.21-2.4,5.81c-1.6,1.6-3.53,2.4-5.81,2.4s-4.23-.8-5.87-2.4Zm12.43,77.25h-13.25v-64.5h13.25v64.5Z"
                  />
            <path d="m897.87,326.05l19.95-51.5h13.38l-26.38,64.5h-14.9l-26.38-64.5h14.39l19.94,51.5Z"
                  />
            <path d="m965.78,273.29c10.35,0,18.76,3.7,25.25,11.11,6.48,7.41,9.13,16.37,7.95,26.89h-53.4c.92,5.22,3.32,9.45,7.2,12.69,3.87,3.24,8.54,4.86,14.01,4.86,4.21,0,7.97-1.03,11.3-3.09,3.32-2.06,5.91-4.86,7.76-8.39l11.11,4.92c-2.86,5.47-6.94,9.85-12.24,13.13-5.3,3.28-11.4,4.92-18.3,4.92-9.68,0-17.8-3.2-24.36-9.59-6.56-6.4-9.85-14.35-9.85-23.86s3.22-17.48,9.66-23.92c6.44-6.44,14.41-9.66,23.92-9.66Zm0,11.49c-4.88,0-9.11,1.5-12.69,4.48-3.58,2.99-5.96,6.88-7.13,11.68h39.64c-1.09-4.8-3.43-8.69-7.01-11.68-3.58-2.99-7.85-4.48-12.81-4.48Z"
                  />
        </g>
        <g id="g">
            <path d="m436.38,218.28l12.28-2.57c1.09,6.39,5.45,9.59,13.1,9.59,3.9,0,7.03-.76,9.41-2.28,2.38-1.52,3.57-3.45,3.57-5.79,0-2.49-1.25-4.38-3.74-5.67-2.5-1.29-5.54-2.22-9.12-2.81-3.59-.58-7.19-1.3-10.82-2.16-3.62-.86-6.68-2.55-9.18-5.09-2.5-2.53-3.74-5.94-3.74-10.23,0-5.22,2.24-9.55,6.72-12.98,4.48-3.43,10.11-5.14,16.9-5.14s12.33,1.52,16.66,4.56c4.33,3.04,6.92,7.17,7.78,12.39l-12.28,2.57c-.94-6.39-4.99-9.59-12.16-9.59-3.27,0-5.96.7-8.07,2.1-2.1,1.4-3.16,3.23-3.16,5.5,0,2.03.9,3.66,2.69,4.91,1.79,1.25,4.05,2.07,6.78,2.46,2.73.39,5.67.98,8.83,1.75,3.16.78,6.1,1.66,8.83,2.63,2.73.98,4.99,2.71,6.78,5.2,1.79,2.49,2.69,5.61,2.69,9.35,0,5.22-2.44,9.57-7.31,13.04-4.87,3.47-10.89,5.2-18.06,5.2s-12.86-1.52-17.3-4.56c-4.44-3.04-7.13-7.17-8.07-12.39Z"
                  style="fill:#7ec246;"/>
            <path d="m526.17,173.15c9.59,0,17.38,3.43,23.38,10.29,6,6.86,8.46,15.16,7.37,24.9h-49.46c.86,4.83,3.08,8.75,6.66,11.75,3.58,3,7.91,4.5,12.98,4.5,3.9,0,7.38-.95,10.46-2.86,3.08-1.91,5.47-4.5,7.19-7.78l10.29,4.56c-2.65,5.07-6.43,9.12-11.34,12.16-4.91,3.04-10.56,4.56-16.95,4.56-8.96,0-16.49-2.96-22.57-8.89-6.08-5.92-9.12-13.29-9.12-22.1s2.98-16.19,8.94-22.16c5.96-5.96,13.35-8.94,22.16-8.94Zm0,10.64c-4.52,0-8.44,1.38-11.75,4.15-3.31,2.77-5.52,6.37-6.61,10.82h36.71c-1.01-4.44-3.18-8.05-6.49-10.82-3.31-2.77-7.27-4.15-11.87-4.15Z"
                  style="fill:#7ec246;"/>
            <path d="m593.28,173.15c7.17,0,13.02,1.87,17.54,5.61,4.52,3.74,6.78,9.12,6.78,16.13v39.17h-12.28v-8.89c-4.91,6.7-11.85,10.05-20.81,10.05-5.69,0-10.33-1.52-13.91-4.56-3.59-3.04-5.38-7.09-5.38-12.16,0-5.85,2.06-10.23,6.2-13.15,4.13-2.92,9.39-4.74,15.78-5.44l11.57-1.17c4.37-.39,6.55-2.34,6.55-5.85,0-2.88-1.11-5.18-3.33-6.9-2.22-1.71-5.13-2.57-8.71-2.57s-6.76.94-9.3,2.81c-2.53,1.87-4.15,4.6-4.85,8.18l-12.16-2.92c1.09-5.61,4.01-10.07,8.77-13.39,4.75-3.31,10.6-4.97,17.54-4.97Zm-6.08,52.15c5.07,0,9.35-1.7,12.86-5.09,3.51-3.39,5.26-7.35,5.26-11.87v-2.34c-1.01.94-3.27,1.6-6.78,1.99l-11.34,1.4c-2.96.39-5.32,1.27-7.07,2.63-1.75,1.36-2.63,3.22-2.63,5.55s.88,4.21,2.63,5.61c1.75,1.4,4.11,2.1,7.07,2.1Z"
                  style="fill:#7ec246;"/>
            <path d="m643.09,174.32v8.53c2.65-3.66,6.04-6.35,10.17-8.07,4.13-1.71,8.54-2.03,13.21-.94v11.69c-6.47-1.79-11.98-1.23-16.54,1.7-4.56,2.92-6.84,7.27-6.84,13.04v33.79h-12.28v-59.75h12.28Z"
                  style="fill:#7ec246;"/>
            <path d="m677.34,226.35c-6.08-5.92-9.12-13.29-9.12-22.1s3.04-16.19,9.12-22.16c6.08-5.96,13.6-8.94,22.57-8.94,6.47,0,12.26,1.68,17.36,5.03,5.1,3.35,8.87,7.95,11.28,13.8l-11.34,3.86c-1.56-3.51-3.86-6.27-6.9-8.3-3.04-2.03-6.51-3.04-10.41-3.04-5.38,0-9.9,1.89-13.56,5.67-3.67,3.78-5.5,8.48-5.5,14.09s1.83,10.29,5.5,14.03c3.66,3.74,8.18,5.61,13.56,5.61,3.9,0,7.38-.99,10.46-2.98,3.08-1.99,5.36-4.77,6.84-8.36l11.34,3.86c-2.42,5.85-6.18,10.45-11.28,13.8-5.11,3.35-10.89,5.03-17.36,5.03-8.96,0-16.49-2.96-22.57-8.89Z"
                  style="fill:#7ec246;"/>
            <path d="m771.34,173.15c7.25,0,13.19,2.38,17.83,7.13,4.64,4.76,6.96,10.8,6.96,18.12v35.66h-12.28v-33.79c0-4.6-1.52-8.4-4.56-11.4-3.04-3-6.86-4.5-11.46-4.5s-8.44,1.5-11.52,4.5c-3.08,3-4.62,6.8-4.62,11.4v33.79h-12.28v-86.52h12.28v35.31c4.75-6.47,11.3-9.7,19.64-9.7Z"
                  style="fill:#7ec246;"/>
        </g>
    </g>
</svg>
